# xmcd
#
# Track frame offsets:
#	150
#	11369
#	23780
#	36143
#	46693
#	56123
#	66269
#	77051
#	85777
#	98901
#	111923
#	124146
#	135426
#	147902
#	158739
#	169155
#	181055
#	192866
#	203699
#	213131
#	225416
#	237340
#	246880
#	255697
#	269310
#	280616
#	292164
#	308412
#	320115
#	331867
#
# Disc length: 4629 seconds
# Revision: 0
# Processed by: cddbd v1.5.2PL0 Copyright (c) Steve Scherf et al.
# Submitted via: dBpowerAMP V12.0
#
DISCID=9c12131e
DTITLE=Various Artist - R&B Spotlight '59
DYEAR=1959
DGENRE=Rhythm and Blues
TTITLE0=Wilbert Harrison - Kansas City
TTITLE1=Frankie Ford - Sea Cruise
TTITLE2=Chuck Berry - Little Queenie
TTITLE3=Jimmy Reed - I Told You Baby
TTITLE4=The Accents - Wiggle, Wiggle
TTITLE5=The Cadillacs - Peek A-Boo
TTITLE6=The Coasters - Charlie Brown
TTITLE7=Marie and Rex - I Can't Sit Down
TTITLE8=The Crests - 16 Candles
TTITLE9=The Flamingos - Lovers Never Say Goodbye
TTITLE10=The Skyliners - Since I Don't Have You
TTITLE11=Bo Diddley - I'm Sorry
TTITLE12=Hank Ballard and The Midnighters - Teardrops On Your Letter
TTITLE13=The Fiestas - So Fine
TTITLE14=The Genies - Who's That Knocking
TTITLE15=Hank Ballard and The Midnighters - The Twist
TTITLE16=Clyde McPhatter - Lovey Dovey
TTITLE17=Chuck Berry - Almost Grown
TTITLE18=Dave ''Baby'' Cortez - The Happy Organ
TTITLE19=Titus Turner - Return Of Stagolee
TTITLE20=Lloyd Price - Personality
TTITLE21=Fats Domino - I'm Ready
TTITLE22=Dee Clark - Just Keep It Up
TTITLE23=The Coasters - Along Came Jones
TTITLE24=Clyde McPhatter - Since You've Been Gone
TTITLE25=Ruth Brown - Jack O'Diamonds
TTITLE26=Big Jay McNeely and Band - There Is Something On Your Mind
TTITLE27=The Impalas - Sorry (I Ran All The Way Home)
TTITLE28=Lavern Baker - I Waited Too Long
TTITLE29=The Flamingos - I Only Have Eyes For You
EXTD=
EXTT0=
EXTT1=
EXTT2=
EXTT3=
EXTT4=
EXTT5=
EXTT6=
EXTT7=
EXTT8=
EXTT9=
EXTT10=
EXTT11=
EXTT12=
EXTT13=
EXTT14=
EXTT15=
EXTT16=
EXTT17=
EXTT18=
EXTT19=
EXTT20=
EXTT21=
EXTT22=
EXTT23=
EXTT24=
EXTT25=
EXTT26=
EXTT27=
EXTT28=
EXTT29=
PLAYORDER=
